inDegrees=no
num_controls=7
num_derivatives=13
num_iterations=88
num_multipliers=7
num_parameters=0
num_slacks=7
num_states=26
objective=0.470037
objective_accelerations=0.064466
objective_balance=0.002088
objective_effort=0.020561
objective_height=0.373374
objective_ligament=0.009549
solver_duration=1223.892327
status=Solve_Succeeded
success=true
DataType=double
version=3
OpenSimVersion=4.5
endheader
time	/jointset/ground_pelvis/pelvis_tilt/value	/jointset/ground_pelvis/pelvis_tx/value	/jointset/ground_pelvis/pelvis_ty/value	/jointset/hip_l/hip_flexion_l/value	/jointset/hip_l/hip_adduction_l/value	/jointset/hip_l/hip_rotation_l/value	/jointset/back/lumbar_extension/value	/jointset/patellofemoral_l/patellar_flexion_l/value	/jointset/knee_l/knee_flexion_l/value	/jointset/knee_l/knee_adduction_l/value	/jointset/knee_l/knee_rotation_l/value	/jointset/ankle_l/ankle_angle_l/value	/jointset/subtalar_l/subtalar_angle_l/value	/jointset/ground_pelvis/pelvis_tilt/speed	/jointset/ground_pelvis/pelvis_tx/speed	/jointset/ground_pelvis/pelvis_ty/speed	/jointset/hip_l/hip_flexion_l/speed	/jointset/hip_l/hip_adduction_l/speed	/jointset/hip_l/hip_rotation_l/speed	/jointset/back/lumbar_extension/speed	/jointset/patellofemoral_l/patellar_flexion_l/speed	/jointset/knee_l/knee_flexion_l/speed	/jointset/knee_l/knee_adduction_l/speed	/jointset/knee_l/knee_rotation_l/speed	/jointset/ankle_l/ankle_angle_l/speed	/jointset/subtalar_l/subtalar_angle_l/speed	/forceset/tau_hip_flexion_l	/forceset/tau_hip_adduction_l	/forceset/tau_hip_rotation_l	/forceset/tau_knee_flexion_l	/forceset/tau_ankle_angle_l	/forceset/tau_subtalar_angle_l	/forceset/tau_lumbar_extension	lambda_cid13_p0	lambda_cid13_p1	lambda_cid13_p2	lambda_cid13_p3	lambda_cid13_p4	lambda_cid13_p5	lambda_cid14_p0	/jointset/ground_pelvis/pelvis_tilt/accel	/jointset/ground_pelvis/pelvis_tx/accel	/jointset/ground_pelvis/pelvis_ty/accel	/jointset/hip_l/hip_flexion_l/accel	/jointset/hip_l/hip_adduction_l/accel	/jointset/hip_l/hip_rotation_l/accel	/jointset/back/lumbar_extension/accel	/jointset/patellofemoral_l/patellar_flexion_l/accel	/jointset/knee_l/knee_flexion_l/accel	/jointset/knee_l/knee_adduction_l/accel	/jointset/knee_l/knee_rotation_l/accel	/jointset/ankle_l/ankle_angle_l/accel	/jointset/subtalar_l/subtalar_angle_l/accel	gamma_cid13_p0	gamma_cid13_p1	gamma_cid13_p2	gamma_cid13_p3	gamma_cid13_p4	gamma_cid13_p5	gamma_cid14_p0
0.5	-0.4160393208916557	-0.06580455171332535	0.775132867705177	1.189331442383337	-0.3526648480265975	-0.06387291369817399	-0.406991229491255	0.7161140398417547	0.7161140398417959	-0.05299893686985278	-0.1744955546165486	0.04819777224209476	0.08291784250467925	-1.313091622932959	-0.405178565872311	-0.5071917157410659	2.906228506379398	0.0438246141107803	0.4387031413367409	-0.2934950402814496	1.363226917412595	1.363226917412806	0.2133538040342047	0.0003120814163012865	-0.1276703350110798	0.002245044512436109	-0.1663649295689651	0.01756992931460446	0.005054733397932878	-0.1448826445190296	0.1003693372538179	-0.005514360149105343	0.1506321342052167	6.755394212895845	1.967019459278197	-1.45694530374885	-8.603149312980747	-434.9756698196579	-53.37789198879918	-14.52828216059325	0.5360721970162534	0.7250578666740289	-0.3903050451640402	-1.744454853178758	0.1025516353329776	-0.3526587248801712	1.635001299444917	-1.04938710908608	-1.049387109086154	-0.4509766491263081	0.08823680330030081	0.02987736232057196	0.1185285914444447	-5.202712802995451e-11	-1.399014711764739e-06	-6.964814896975112e-07	-3.021586349246345e-07	-2.426033829347288e-07	2.120356393633465e-07	-1.671346631415633e-07
0.51	-0.4291407141958727	-0.06981947937771195	0.7700427497320446	1.218301063893679	-0.3522223469065081	-0.0595078522955813	-0.4098454275970986	0.729691547612126	0.7296915476120618	-0.05088745324401423	-0.1744919003315681	0.04692255049730992	0.08294534891953931	-1.307015572979386	-0.397754841717137	-0.5107104914123654	2.887289706549851	0.04466236921846858	0.4342571397042351	-0.2773328651439924	1.352066030502958	1.35206603050299	0.2089259919816972	0.0004125980832961016	-0.1273589875149201	0.003247229606435952	-0.1732570141327007	0.01828441186018938	0.004570031876070095	-0.1453318568872013	0.1023373777397199	-0.004796265218123633	0.1554518813470987	7.230543215279329	1.711453213628579	-1.575540503601579	-9.06766968554798	-438.7527477786113	-53.49482253809296	-13.97253140964125	0.6690677220594043	0.7587826853685126	-0.3144939035099774	-2.029530212806497	0.07275321972391016	-0.4984665909575421	1.608582982379242	-1.180700765558474	-1.180700765585228	-0.4415545452260705	-0.03007938632054529	0.03395583196700911	0.09005080608165485	4.555739299179982e-09	-1.324481765526729e-06	-6.960995509868617e-07	-2.967150454278183e-07	-2.129938323171216e-07	2.190140417146814e-07	-1.56800739043267e-07
0.52	-0.4421762077350486	-0.07375861920146079	0.7649210779871197	1.24706910987273	-0.3517717950810946	-0.0551888300510187	-0.412537652479272	0.7431511942566489	0.7431511942565229	-0.04882082195101538	-0.174487448576904	0.0456508807052274	0.08298267465288017	-1.299911669924546	-0.3900209977447594	-0.5135024700995569	2.865913400121757	0.04543475517564544	0.4294953097308552	-0.2611003955472131	1.339654692247083	1.339654692246937	0.2043833374526636	0.0004715753615080675	-0.1269599444706269	0.0042089082085916	-0.1801490986964638	0.01899889440576804	0.00408533035451214	-0.1457810692553802	0.1043054182256202	-0.004078170287152484	0.1602716284889522	7.704993586738948	1.456366653562868	-1.694620931985824	-9.53013956623507	-442.5390606762644	-53.6237139565543	-13.42023762277364	0.7416428172699249	0.7870818301147383	-0.2449456483424667	-2.231956172888042	0.08947780523070509	-0.4158243930550031	1.649060191309268	-1.299477378333664	-1.29947737833362	-0.4739451444315453	0.07992892554372839	0.04741647194728307	0.1104272930756032	-2.884693745399763e-08	-1.050718061599203e-06	-2.763239738592836e-07	-2.315086450375372e-07	-2.574670717465423e-07	2.856270815772014e-07	-1.741790702809848e-07
0.53	-0.4551356657888761	-0.07761901278326719	0.7597751222026189	1.275611533659869	-0.3513140651079636	-0.05091756122520888	-0.4150673636049669	0.7564805422084346	0.7564805422083959	-0.04680129124162628	-0.1744816550042187	0.04438349443202727	0.08302912513850867	-1.291818015165968	-0.3820198528366676	-0.515565578360188	2.84219189395584	0.04611057580062849	0.4246439208707439	-0.2448508567948979	1.326013825091594	1.326013825091307	0.1995702477745272	0.0006409998346724498	-0.1265077081782182	0.005084667395200258	-0.1870593657130381	0.01976292362608432	0.003533498853607005	-0.1460585108727626	0.10592449283041	-0.003453246521066583	0.1650112420238605	8.056836668727154	1.252902470389504	-1.810155015727486	-9.825083564385324	-446.3424261844367	-53.63506856887627	-12.87157211802934	0.8674879025278692	0.8122712364117538	-0.1685833142030123	-2.499199003420209	0.05670553768800207	-0.5371195264365776	1.61154663671499	-1.426515675352042	-1.426515675373097	-0.4780731763177088	-0.02143913032731811	0.04553035860520985	0.07682266099168582	-7.340099899903841e-08	-7.051602556896269e-07	2.869268784841151e-07	-1.409778567142112e-07	-3.175354680649893e-07	3.759535533855468e-07	-1.979189554320804e-07
0.54	-0.4680093350756442	-0.08139826683294145	0.754612217355656	1.303905352152351	-0.3508495626592727	-0.04669827096678376	-0.4174348501592353	0.7696674566304139	0.7696674566304877	-0.04482850788835156	-0.1744755448545316	0.04312091115189444	0.08308446770191089	-1.282753916512344	-0.3737930913183372	-0.5168922825920167	2.816192341190855	0.04678925028784425	0.4190995962527355	-0.2286554812616914	1.311167986288283	1.311167986287856	0.1950338662238706	0.000534890766633693	-0.1259993458571079	0.005987323763337142	-0.1939696327296313	0.0205269528464215	0.002981667352848758	-0.1463359524901444	0.1075435674352073	-0.002828322754957716	0.1697508555587426	8.407967066602744	1.049017170984993	-1.924998700107282	-10.1265091497319	-450.1605217707884	-53.6781453619446	-12.32688388780541	0.9357315962792052	0.8322051521624907	-0.09766484258196965	-2.687565492701868	0.09004857767724317	-0.5544115446344495	1.638227547487503	-1.540471707898153	-1.54047170789794	-0.418603518935585	0.02482221730309231	0.05864167768760842	0.1158067293812443	-1.302927628669918e-07	-2.801706773743769e-07	1.008916333193956e-06	-2.242859663517557e-08	-3.948580805159765e-07	4.925161626658695e-07	-2.286971555511685e-07
